<?xml version="1.0" standalone="no"?>
<!DOCTYPE svg PUBLIC "-//W3C//DTD SVG 20010904//EN"
 "http://www.w3.org/TR/2001/REC-SVG-20010904/DTD/svg10.dtd">
<svg version="1.0" xmlns="http://www.w3.org/2000/svg"
 width="50.000000pt" height="50.000000pt" viewBox="0 0 50.000000 50.000000"
 preserveAspectRatio="xMidYMid meet">

<g transform="translate(0.000000,50.000000) scale(0.100000,-0.100000)"
fill="#000000" stroke="none">
<path d="M56 398 c-13 -17 -16 -51 -16 -148 0 -180 -12 -170 209 -170 224 0
211 -11 211 166 0 185 13 174 -210 174 -173 0 -179 -1 -194 -22z m369 -148 l0
-145 -175 0 -175 0 -3 134 c-1 74 0 141 2 148 4 11 42 13 178 11 l173 -3 0
-145z"/>
<path d="M100 312 c0 -10 56 -63 90 -85 52 -36 130 -11 194 62 31 35 10 36
-30 2 -20 -18 -52 -40 -70 -49 -31 -14 -37 -14 -68 0 -18 9 -49 30 -69 47 -35
32 -47 37 -47 23z"/>
</g>
</svg>
