<?xml version="1.0" standalone="no"?>
<!DOCTYPE svg PUBLIC "-//W3C//DTD SVG 20010904//EN"
 "http://www.w3.org/TR/2001/REC-SVG-20010904/DTD/svg10.dtd">
<svg version="1.0" xmlns="http://www.w3.org/2000/svg"
 width="50.000000pt" height="50.000000pt" viewBox="0 0 50.000000 50.000000"
 preserveAspectRatio="xMidYMid meet">

<g transform="translate(0.000000,50.000000) scale(0.100000,-0.100000)"
fill="#000000" stroke="none">
<path d="M56 444 c-24 -23 -24 -365 0 -388 23 -24 365 -24 388 0 24 23 24 365
0 388 -23 24 -365 24 -388 0z m379 -194 l0 -185 -185 0 -185 0 -3 175 c-1 96
0 180 3 187 3 11 44 13 187 11 l183 -3 0 -185z"/>
<path d="M109 374 c-17 -21 0 -49 31 -49 31 0 48 28 31 49 -8 9 -21 16 -31 16
-10 0 -23 -7 -31 -16z m46 -13 c7 -12 -12 -24 -25 -16 -11 7 -4 25 10 25 5 0
11 -4 15 -9z"/>
<path d="M100 205 l0 -105 40 0 40 0 0 105 0 105 -40 0 -40 0 0 -105z m60 0
c0 -78 -2 -85 -20 -85 -18 0 -20 7 -20 85 0 78 2 85 20 85 18 0 20 -7 20 -85z"/>
<path d="M190 205 l0 -105 40 0 39 0 3 68 c3 59 5 67 23 67 18 0 20 -8 23 -67
l3 -68 39 0 40 0 0 70 c0 76 -17 125 -47 133 -10 3 -51 6 -90 6 l-73 1 0 -105z
m62 74 c3 -9 9 -9 25 0 32 16 60 14 83 -9 16 -16 20 -33 20 -85 0 -58 -2 -65
-20 -65 -17 0 -20 7 -20 51 0 63 -13 89 -45 89 -32 0 -45 -26 -45 -89 0 -44
-3 -51 -20 -51 -18 0 -20 7 -20 85 0 77 2 85 19 85 11 0 21 -5 23 -11z"/>
</g>
</svg>
