<?xml version="1.0" standalone="no"?>
<!DOCTYPE svg PUBLIC "-//W3C//DTD SVG 20010904//EN"
 "http://www.w3.org/TR/2001/REC-SVG-20010904/DTD/svg10.dtd">
<svg version="1.0" xmlns="http://www.w3.org/2000/svg"
 width="300.000000pt" height="300.000000pt" viewBox="0 0 300.000000 300.000000"
 preserveAspectRatio="xMidYMid meet">

<g transform="translate(0.000000,300.000000) scale(0.100000,-0.100000)"
fill="#000000" stroke="none">
<path d="M170 2655 l0 -175 175 0 175 0 0 175 0 175 -175 0 -175 0 0 -175z
m300 0 l0 -125 -125 0 -125 0 0 125 0 125 125 0 125 0 0 -125z"/>
<path d="M270 2655 l0 -75 75 0 75 0 0 75 0 75 -75 0 -75 0 0 -75z"/>
<path d="M570 2805 c0 -20 5 -25 25 -25 20 0 25 5 25 25 0 20 -5 25 -25 25
-20 0 -25 -5 -25 -25z"/>
<path d="M670 2805 c0 -23 3 -25 50 -25 47 0 50 -2 50 -25 0 -23 -3 -25 -50
-25 -47 0 -50 -2 -50 -25 0 -20 5 -25 25 -25 20 0 25 -5 25 -25 0 -20 5 -25
25 -25 20 0 25 -5 25 -25 0 -20 5 -25 25 -25 20 0 25 5 25 25 0 20 5 25 25 25
20 0 25 5 25 25 0 20 5 25 25 25 20 0 25 5 25 25 0 20 5 25 25 25 23 0 25 -3
25 -50 0 -47 2 -50 25 -50 20 0 25 -5 25 -25 0 -23 3 -25 50 -25 47 0 50 2 50
25 0 23 -3 25 -50 25 l-50 0 0 50 c0 47 2 50 25 50 20 0 25 5 25 25 0 23 3 25
50 25 47 0 50 -2 50 -25 0 -23 3 -25 50 -25 l50 0 0 -50 0 -50 50 0 50 0 0
-75 c0 -73 -1 -75 -25 -75 -23 0 -25 3 -25 50 l0 50 -75 0 -75 0 0 -75 c0 -73
-1 -75 -25 -75 -23 0 -25 3 -25 50 0 47 -2 50 -25 50 -24 0 -25 -2 -25 -75 0
-73 1 -75 25 -75 20 0 25 -5 25 -25 0 -20 5 -25 25 -25 20 0 25 -5 25 -25 0
-20 5 -25 25 -25 23 0 25 -3 25 -50 0 -47 -2 -50 -25 -50 -20 0 -25 5 -25 25
0 23 -3 25 -50 25 -47 0 -50 2 -50 25 0 20 -5 25 -25 25 -24 0 -25 2 -25 75 0
73 -1 75 -25 75 -24 0 -25 -2 -25 -75 0 -73 -1 -75 -25 -75 -20 0 -25 5 -25
25 0 20 -5 25 -25 25 -24 0 -25 -2 -25 -75 0 -73 -1 -75 -25 -75 -20 0 -25 -5
-25 -25 0 -20 -5 -25 -25 -25 -23 0 -25 3 -25 50 0 47 2 50 25 50 20 0 25 5
25 25 0 24 -2 25 -75 25 l-75 0 0 100 0 100 25 0 c24 0 25 -2 25 -75 l0 -75
50 0 50 0 0 100 0 100 -25 0 c-20 0 -25 -5 -25 -25 0 -20 -5 -25 -25 -25 -20
0 -25 5 -25 25 0 20 -5 25 -25 25 -20 0 -25 -5 -25 -25 0 -20 -5 -25 -25 -25
-20 0 -25 5 -25 25 0 20 -5 25 -25 25 -20 0 -25 -5 -25 -25 0 -20 5 -25 25
-25 20 0 25 -5 25 -25 0 -20 -5 -25 -25 -25 -20 0 -25 -5 -25 -25 0 -20 -5
-25 -25 -25 -20 0 -25 5 -25 25 0 20 -5 25 -25 25 -20 0 -25 -5 -25 -25 0 -20
5 -25 25 -25 20 0 25 -5 25 -25 0 -20 -5 -25 -25 -25 -20 0 -25 -5 -25 -25 0
-23 3 -25 50 -25 l50 0 0 -50 c0 -47 2 -50 25 -50 20 0 25 -5 25 -25 0 -24 2
-25 75 -25 73 0 75 -1 75 -25 l0 -25 -100 0 -100 0 0 25 c0 24 -2 25 -75 25
l-75 0 0 50 0 50 -50 0 c-47 0 -50 2 -50 25 0 20 5 25 25 25 20 0 25 5 25 25
0 20 5 25 25 25 20 0 25 5 25 25 0 20 -5 25 -25 25 -20 0 -25 5 -25 25 l0 25
-100 0 -100 0 0 -50 c0 -47 2 -50 25 -50 20 0 25 -5 25 -25 0 -20 -5 -25 -25
-25 -23 0 -25 -3 -25 -50 0 -47 2 -50 25 -50 20 0 25 -5 25 -25 0 -20 5 -25
25 -25 20 0 25 5 25 25 0 23 3 25 50 25 47 0 50 -2 50 -25 0 -20 -5 -25 -25
-25 -23 0 -25 -3 -25 -50 l0 -50 50 0 50 0 0 -50 c0 -47 2 -50 25 -50 20 0 25
-5 25 -25 0 -20 5 -25 25 -25 20 0 25 -5 25 -25 0 -20 -5 -25 -25 -25 -20 0
-25 -5 -25 -25 0 -20 5 -25 25 -25 20 0 25 -5 25 -25 0 -20 -5 -25 -25 -25
-20 0 -25 -5 -25 -25 0 -20 5 -25 25 -25 20 0 25 -5 25 -25 0 -23 -3 -25 -50
-25 l-50 0 0 75 0 75 -50 0 c-47 0 -50 2 -50 25 0 20 -5 25 -25 25 -20 0 -25
5 -25 25 0 20 5 25 25 25 23 0 25 3 25 50 0 47 -2 50 -25 50 -23 0 -25 -3 -25
-50 0 -47 -2 -50 -25 -50 -20 0 -25 -5 -25 -25 0 -20 5 -25 25 -25 20 0 25 -5
25 -25 0 -20 5 -25 25 -25 20 0 25 -5 25 -25 0 -20 5 -25 25 -25 20 0 25 -5
25 -25 0 -24 -2 -25 -75 -25 l-75 0 0 50 c0 47 -2 50 -25 50 -23 0 -25 -3 -25
-50 0 -47 2 -50 25 -50 23 0 25 -3 25 -50 0 -47 2 -50 25 -50 20 0 25 -5 25
-25 0 -23 -3 -25 -50 -25 l-50 0 0 -50 c0 -47 2 -50 25 -50 20 0 25 5 25 25 0
20 5 25 25 25 23 0 25 -3 25 -50 l0 -50 -50 0 c-47 0 -50 -2 -50 -25 0 -23 3
-25 50 -25 47 0 50 -2 50 -25 0 -20 5 -25 25 -25 20 0 25 -5 25 -25 0 -20 5
-25 25 -25 20 0 25 5 25 25 0 20 -5 25 -25 25 -20 0 -25 5 -25 25 0 20 5 25
25 25 20 0 25 5 25 25 0 20 5 25 25 25 23 0 25 -3 25 -50 l0 -50 50 0 c47 0
50 2 50 25 0 20 5 25 25 25 23 0 25 -3 25 -50 l0 -50 -75 0 c-73 0 -75 -1 -75
-25 l0 -25 -100 0 -100 0 0 25 c0 20 -5 25 -25 25 -20 0 -25 -5 -25 -25 0 -20
5 -25 25 -25 20 0 25 -5 25 -25 0 -20 -5 -25 -25 -25 -20 0 -25 -5 -25 -25 0
-20 5 -25 25 -25 20 0 25 -5 25 -25 0 -20 -5 -25 -25 -25 l-25 0 0 -100 0
-100 25 0 c20 0 25 -5 25 -25 0 -20 5 -25 25 -25 20 0 25 5 25 25 0 20 5 25
25 25 20 0 25 5 25 25 0 20 -5 25 -25 25 -20 0 -25 5 -25 25 0 23 3 25 50 25
47 0 50 -2 50 -25 0 -20 5 -25 25 -25 20 0 25 -5 25 -25 0 -20 -5 -25 -25 -25
-20 0 -25 -5 -25 -25 0 -20 -5 -25 -25 -25 -23 0 -25 -3 -25 -50 0 -47 -2 -50
-25 -50 -20 0 -25 5 -25 25 0 23 -3 25 -50 25 -47 0 -50 -2 -50 -25 0 -20 5
-25 25 -25 20 0 25 -5 25 -25 0 -23 3 -25 50 -25 47 0 50 -2 50 -25 0 -20 5
-25 25 -25 20 0 25 5 25 25 0 20 -5 25 -25 25 -20 0 -25 5 -25 25 l0 25 100 0
100 0 0 -25 c0 -20 -5 -25 -25 -25 -20 0 -25 -5 -25 -25 0 -23 3 -25 50 -25
47 0 50 -2 50 -25 0 -20 5 -25 25 -25 24 0 25 -2 25 -75 0 -73 -1 -75 -25 -75
l-25 0 0 -100 0 -100 50 0 c47 0 50 2 50 25 0 20 5 25 25 25 23 0 25 3 25 50
l0 50 50 0 c47 0 50 -2 50 -25 0 -20 -5 -25 -25 -25 -23 0 -25 -3 -25 -50 0
-47 2 -50 25 -50 20 0 25 5 25 25 0 20 5 25 25 25 20 0 25 -5 25 -25 0 -23 3
-25 50 -25 l50 0 0 50 0 50 50 0 c47 0 50 -2 50 -25 0 -20 5 -25 25 -25 20 0
25 -5 25 -25 0 -20 5 -25 25 -25 23 0 25 3 25 50 0 47 2 50 25 50 24 0 25 2
25 75 l0 75 -100 0 -100 0 0 25 c0 23 -3 25 -50 25 -47 0 -50 -2 -50 -25 0
-20 -5 -25 -25 -25 -20 0 -25 -5 -25 -25 0 -24 -2 -25 -75 -25 -73 0 -75 1
-75 25 0 23 3 25 50 25 47 0 50 2 50 25 0 20 5 25 25 25 20 0 25 5 25 25 0 20
5 25 25 25 23 0 25 3 25 50 0 47 2 50 25 50 23 0 25 -3 25 -50 l0 -50 50 0
c47 0 50 2 50 25 0 20 -5 25 -25 25 -20 0 -25 5 -25 25 0 20 5 25 25 25 20 0
25 5 25 25 0 20 5 25 25 25 l25 0 0 -100 0 -100 50 0 c47 0 50 2 50 25 0 20
-5 25 -25 25 -20 0 -25 5 -25 25 0 20 5 25 25 25 24 0 25 2 25 75 l0 75 50 0
c47 0 50 -2 50 -25 0 -20 5 -25 25 -25 23 0 25 3 25 50 0 47 2 50 25 50 20 0
25 5 25 25 0 23 3 25 50 25 47 0 50 -2 50 -25 0 -20 -5 -25 -25 -25 -20 0 -25
-5 -25 -25 0 -20 -5 -25 -25 -25 -20 0 -25 -5 -25 -25 0 -20 5 -25 25 -25 20
0 25 5 25 25 0 24 2 25 75 25 l75 0 0 50 c0 47 2 50 25 50 20 0 25 -5 25 -25
0 -20 5 -25 25 -25 20 0 25 -5 25 -25 0 -20 -5 -25 -25 -25 -20 0 -25 -5 -25
-25 0 -20 5 -25 25 -25 20 0 25 -5 25 -25 l0 -25 -175 0 -175 0 0 -50 c0 -47
-2 -50 -25 -50 -20 0 -25 5 -25 25 0 20 -5 25 -25 25 -20 0 -25 -5 -25 -25 0
-20 5 -25 25 -25 23 0 25 -3 25 -50 0 -47 -2 -50 -25 -50 l-25 0 0 -125 0
-125 100 0 100 0 0 25 c0 23 -3 25 -50 25 l-50 0 0 50 c0 47 2 50 25 50 20 0
25 5 25 25 0 24 2 25 75 25 73 0 75 -1 75 -25 0 -20 -5 -25 -25 -25 -20 0 -25
-5 -25 -25 0 -20 5 -25 25 -25 20 0 25 -5 25 -25 0 -20 -5 -25 -25 -25 -20 0
-25 -5 -25 -25 0 -20 5 -25 25 -25 20 0 25 5 25 25 0 23 3 25 50 25 47 0 50
-2 50 -25 0 -23 3 -25 50 -25 47 0 50 2 50 25 0 20 5 25 25 25 20 0 25 5 25
25 0 23 3 25 50 25 47 0 50 -2 50 -25 0 -20 -5 -25 -25 -25 -20 0 -25 -5 -25
-25 0 -23 3 -25 50 -25 l50 0 0 75 c0 73 1 75 25 75 24 0 25 -2 25 -75 0 -73
1 -75 25 -75 24 0 25 2 25 75 0 73 1 75 25 75 24 0 25 -2 25 -75 0 -73 1 -75
25 -75 23 0 25 3 25 50 0 47 2 50 25 50 20 0 25 -5 25 -25 0 -23 3 -25 50 -25
47 0 50 -2 50 -25 0 -24 2 -25 75 -25 73 0 75 1 75 25 0 20 5 25 25 25 23 0
25 3 25 50 0 47 -2 50 -25 50 -20 0 -25 5 -25 25 l0 25 100 0 100 0 0 -75 c0
-73 1 -75 25 -75 20 0 25 -5 25 -25 0 -20 5 -25 25 -25 20 0 25 5 25 25 0 20
5 25 25 25 23 0 25 3 25 50 0 47 -2 50 -25 50 l-25 0 0 100 0 100 25 0 c20 0
25 5 25 25 0 20 -5 25 -25 25 -20 0 -25 -5 -25 -25 0 -23 -3 -25 -50 -25 l-50
0 0 50 0 50 -50 0 c-47 0 -50 2 -50 25 0 23 3 25 50 25 47 0 50 2 50 25 0 20
-5 25 -25 25 -23 0 -25 3 -25 50 0 47 2 50 25 50 20 0 25 5 25 25 0 23 -3 25
-50 25 l-50 0 0 50 c0 47 -2 50 -25 50 -20 0 -25 -5 -25 -25 0 -20 -5 -25 -25
-25 -20 0 -25 5 -25 25 0 20 -5 25 -25 25 -20 0 -25 -5 -25 -25 0 -20 5 -25
25 -25 23 0 25 -3 25 -50 0 -47 -2 -50 -25 -50 -20 0 -25 -5 -25 -25 0 -23 -3
-25 -50 -25 -47 0 -50 -2 -50 -25 0 -20 5 -25 25 -25 20 0 25 -5 25 -25 0 -20
-5 -25 -25 -25 -20 0 -25 -5 -25 -25 0 -20 5 -25 25 -25 l25 0 0 -125 0 -125
-25 0 c-20 0 -25 -5 -25 -25 0 -20 5 -25 25 -25 20 0 25 -5 25 -25 0 -20 5
-25 25 -25 20 0 25 -5 25 -25 0 -23 -3 -25 -50 -25 -47 0 -50 2 -50 25 0 20
-5 25 -25 25 -20 0 -25 5 -25 25 0 20 -5 25 -25 25 -23 0 -25 3 -25 50 0 47 2
50 25 50 20 0 25 5 25 25 0 20 -5 25 -25 25 -20 0 -25 -5 -25 -25 0 -20 -5
-25 -25 -25 -23 0 -25 -3 -25 -50 0 -47 -2 -50 -25 -50 -23 0 -25 3 -25 50 0
47 -2 50 -25 50 -20 0 -25 -5 -25 -25 0 -24 -2 -25 -75 -25 -73 0 -75 1 -75
25 0 20 5 25 25 25 20 0 25 5 25 25 0 24 -2 25 -75 25 l-75 0 0 75 c0 73 1 75
25 75 24 0 25 2 25 75 0 73 1 75 25 75 23 0 25 -3 25 -50 l0 -50 50 0 c47 0
50 -2 50 -25 0 -23 3 -25 50 -25 47 0 50 2 50 25 0 20 -5 25 -25 25 -23 0 -25
3 -25 50 l0 50 -75 0 c-73 0 -75 1 -75 25 0 20 -5 25 -25 25 -20 0 -25 -5 -25
-25 0 -24 -2 -25 -75 -25 -73 0 -75 1 -75 25 0 20 5 25 25 25 20 0 25 5 25 25
0 20 -5 25 -25 25 -23 0 -25 3 -25 50 0 47 -2 50 -25 50 -20 0 -25 5 -25 25 0
20 -5 25 -25 25 -23 0 -25 -3 -25 -50 0 -47 2 -50 25 -50 20 0 25 -5 25 -25 0
-20 -5 -25 -25 -25 -20 0 -25 -5 -25 -25 0 -23 -3 -25 -50 -25 -47 0 -50 2
-50 25 0 20 5 25 25 25 20 0 25 5 25 25 0 20 -5 25 -25 25 -20 0 -25 5 -25 25
0 20 5 25 25 25 20 0 25 5 25 25 0 20 -5 25 -25 25 -23 0 -25 3 -25 50 0 47 2
50 25 50 20 0 25 -5 25 -25 0 -20 5 -25 25 -25 20 0 25 5 25 25 0 23 3 25 50
25 47 0 50 -2 50 -25 0 -20 5 -25 25 -25 23 0 25 -3 25 -50 0 -47 2 -50 25
-50 20 0 25 -5 25 -25 0 -20 5 -25 25 -25 20 0 25 -5 25 -25 0 -23 3 -25 50
-25 47 0 50 -2 50 -25 0 -23 3 -25 50 -25 47 0 50 2 50 25 0 23 -3 25 -50 25
-47 0 -50 2 -50 25 0 20 5 25 25 25 20 0 25 5 25 25 0 20 -5 25 -25 25 -20 0
-25 5 -25 25 0 20 5 25 25 25 20 0 25 5 25 25 0 20 -5 25 -25 25 -20 0 -25 -5
-25 -25 0 -20 -5 -25 -25 -25 -20 0 -25 5 -25 25 0 20 -5 25 -25 25 -20 0 -25
5 -25 25 0 23 3 25 50 25 47 0 50 2 50 25 0 20 5 25 25 25 20 0 25 -5 25 -25
0 -20 5 -25 25 -25 20 0 25 -5 25 -25 0 -20 5 -25 25 -25 20 0 25 -5 25 -25 0
-20 -5 -25 -25 -25 -23 0 -25 -3 -25 -50 0 -47 2 -50 25 -50 20 0 25 -5 25
-25 0 -20 5 -25 25 -25 20 0 25 -5 25 -25 0 -20 -5 -25 -25 -25 -20 0 -25 -5
-25 -25 0 -20 5 -25 25 -25 20 0 25 5 25 25 l0 25 100 0 100 0 0 50 c0 47 -2
50 -25 50 -20 0 -25 5 -25 25 0 20 5 25 25 25 20 0 25 5 25 25 0 23 3 25 50
25 47 0 50 2 50 25 0 20 5 25 25 25 20 0 25 -5 25 -25 0 -20 5 -25 25 -25 23
0 25 3 25 50 l0 50 50 0 c47 0 50 -2 50 -25 0 -20 -5 -25 -25 -25 -24 0 -25
-2 -25 -75 l0 -75 50 0 c47 0 50 2 50 25 0 20 -5 25 -25 25 -23 0 -25 3 -25
50 0 47 2 50 25 50 20 0 25 -5 25 -25 0 -20 5 -25 25 -25 l25 0 0 -100 0 -100
25 0 25 0 0 150 0 150 -25 0 c-20 0 -25 -5 -25 -25 0 -20 -5 -25 -25 -25 -20
0 -25 5 -25 25 0 20 -5 25 -25 25 -20 0 -25 5 -25 25 0 20 5 25 25 25 20 0 25
5 25 25 0 23 -3 25 -50 25 -47 0 -50 -2 -50 -25 0 -20 -5 -25 -25 -25 -20 0
-25 5 -25 25 0 20 -5 25 -25 25 -20 0 -25 5 -25 25 0 20 -5 25 -25 25 -20 0
-25 5 -25 25 0 23 3 25 50 25 47 0 50 -2 50 -25 l0 -25 125 0 125 0 0 25 c0
24 -2 25 -75 25 -73 0 -75 1 -75 25 0 20 -5 25 -25 25 -20 0 -25 5 -25 25 0
20 5 25 25 25 23 0 25 3 25 50 0 47 2 50 25 50 23 0 25 3 25 50 l0 50 50 0
c47 0 50 2 50 25 0 20 -5 25 -25 25 -23 0 -25 3 -25 50 0 47 2 50 25 50 20 0
25 5 25 25 0 24 -2 25 -75 25 -73 0 -75 -1 -75 -25 0 -20 -5 -25 -25 -25 -20
0 -25 5 -25 25 0 24 -2 25 -75 25 -73 0 -75 1 -75 25 0 20 -5 25 -25 25 -20 0
-25 5 -25 25 0 23 3 25 50 25 47 0 50 2 50 25 0 23 3 25 50 25 47 0 50 -2 50
-25 0 -20 -5 -25 -25 -25 -20 0 -25 -5 -25 -25 0 -24 2 -25 75 -25 73 0 75 1
75 25 0 23 3 25 50 25 47 0 50 2 50 25 0 20 -5 25 -25 25 -23 0 -25 3 -25 50
0 47 2 50 25 50 20 0 25 5 25 25 0 20 -5 25 -25 25 -20 0 -25 5 -25 25 0 24
-2 25 -75 25 -73 0 -75 1 -75 25 0 20 -5 25 -25 25 -20 0 -25 5 -25 25 0 20
-5 25 -25 25 -20 0 -25 5 -25 25 0 24 2 25 75 25 l75 0 0 -50 c0 -47 2 -50 25
-50 20 0 25 5 25 25 0 20 5 25 25 25 20 0 25 -5 25 -25 0 -20 5 -25 25 -25 20
0 25 5 25 25 0 20 -5 25 -25 25 -20 0 -25 5 -25 25 0 20 5 25 25 25 23 0 25 3
25 50 0 47 -2 50 -25 50 -23 0 -25 -3 -25 -50 l0 -50 -50 0 c-47 0 -50 2 -50
25 0 20 5 25 25 25 20 0 25 5 25 25 0 24 -2 25 -75 25 -73 0 -75 -1 -75 -25 0
-20 -5 -25 -25 -25 -20 0 -25 -5 -25 -25 0 -20 -5 -25 -25 -25 -20 0 -25 -5
-25 -25 0 -20 -5 -25 -25 -25 -23 0 -25 -3 -25 -50 0 -47 2 -50 25 -50 20 0
25 -5 25 -25 0 -20 -5 -25 -25 -25 -20 0 -25 -5 -25 -25 0 -24 2 -25 75 -25
l75 0 0 50 c0 47 2 50 25 50 23 0 25 -3 25 -50 0 -47 2 -50 25 -50 20 0 25 -5
25 -25 0 -24 -2 -25 -75 -25 -73 0 -75 -1 -75 -25 0 -23 -3 -25 -50 -25 -47 0
-50 -2 -50 -25 0 -20 -5 -25 -25 -25 l-25 0 0 100 0 100 -25 0 c-20 0 -25 -5
-25 -25 0 -20 -5 -25 -25 -25 -20 0 -25 -5 -25 -25 0 -20 -5 -25 -25 -25 -20
0 -25 -5 -25 -25 0 -20 5 -25 25 -25 20 0 25 -5 25 -25 0 -20 5 -25 25 -25 20
0 25 -5 25 -25 0 -20 5 -25 25 -25 24 0 25 -2 25 -75 0 -73 -1 -75 -25 -75
-20 0 -25 5 -25 25 l0 25 -100 0 -100 0 0 25 c0 20 5 25 25 25 20 0 25 5 25
25 0 24 -2 25 -75 25 -73 0 -75 1 -75 25 0 24 2 25 75 25 l75 0 0 75 c0 73 1
75 25 75 23 0 25 3 25 50 l0 50 75 0 75 0 0 50 c0 47 -2 50 -25 50 -20 0 -25
-5 -25 -25 0 -20 -5 -25 -25 -25 -23 0 -25 3 -25 50 l0 50 75 0 c73 0 75 1 75
25 0 20 5 25 25 25 20 0 25 5 25 25 0 20 -5 25 -25 25 -23 0 -25 3 -25 50 0
47 -2 50 -25 50 -20 0 -25 -5 -25 -25 0 -20 -5 -25 -25 -25 l-25 0 0 100 0
100 25 0 c20 0 25 -5 25 -25 0 -20 5 -25 25 -25 20 0 25 5 25 25 0 20 -5 25
-25 25 -23 0 -25 3 -25 50 0 47 -2 50 -25 50 -20 0 -25 5 -25 25 0 20 -5 25
-25 25 -20 0 -25 -5 -25 -25 0 -20 -5 -25 -25 -25 -20 0 -25 5 -25 25 0 20 -5
25 -25 25 -20 0 -25 -5 -25 -25 0 -20 5 -25 25 -25 20 0 25 -5 25 -25 0 -23
-3 -25 -50 -25 -47 0 -50 -2 -50 -25 0 -20 -5 -25 -25 -25 -20 0 -25 -5 -25
-25 0 -20 -5 -25 -25 -25 -20 0 -25 5 -25 25 0 23 -3 25 -50 25 l-50 0 0 75
c0 73 -1 75 -25 75 -23 0 -25 -3 -25 -50 0 -47 -2 -50 -25 -50 -20 0 -25 5
-25 25 0 20 -5 25 -25 25 -20 0 -25 5 -25 25 0 23 -3 25 -50 25 l-50 0 0 -50
0 -50 75 0 c73 0 75 -1 75 -25 0 -24 -2 -25 -75 -25 -73 0 -75 -1 -75 -25 l0
-25 -100 0 -100 0 0 25 c0 24 2 25 75 25 73 0 75 1 75 25 l0 25 -100 0 -100 0
0 25 c0 20 5 25 25 25 20 0 25 5 25 25 0 20 -5 25 -25 25 -20 0 -25 -5 -25
-25 0 -20 -5 -25 -25 -25 -20 0 -25 5 -25 25 0 24 -2 25 -75 25 -73 0 -75 -1
-75 -25 0 -20 -5 -25 -25 -25 -20 0 -25 5 -25 25 0 23 -3 25 -50 25 -47 0 -50
-2 -50 -25 0 -20 -5 -25 -25 -25 -20 0 -25 -5 -25 -25 0 -20 -5 -25 -25 -25
-23 0 -25 3 -25 50 0 47 -2 50 -25 50 -20 0 -25 -5 -25 -25 0 -20 -5 -25 -25
-25 -20 0 -25 5 -25 25 l0 25 -100 0 -100 0 0 -25z m200 -75 c0 -47 -2 -50
-25 -50 -20 0 -25 -5 -25 -25 0 -20 -5 -25 -25 -25 -23 0 -25 3 -25 50 0 47 2
50 25 50 20 0 25 5 25 25 0 20 5 25 25 25 23 0 25 -3 25 -50z m450 25 c0 -20
-5 -25 -25 -25 -20 0 -25 5 -25 25 0 20 5 25 25 25 20 0 25 -5 25 -25z m100
-50 c0 -20 -5 -25 -25 -25 -20 0 -25 5 -25 25 0 20 5 25 25 25 20 0 25 -5 25
-25z m900 0 c0 -20 -5 -25 -25 -25 -20 0 -25 5 -25 25 0 20 5 25 25 25 20 0
25 -5 25 -25z m-100 -50 c0 -20 5 -25 25 -25 24 0 25 -2 25 -75 0 -73 1 -75
25 -75 20 0 25 -5 25 -25 0 -20 -5 -25 -25 -25 -20 0 -25 5 -25 25 0 20 -5 25
-25 25 -20 0 -25 -5 -25 -25 0 -20 -5 -25 -25 -25 -20 0 -25 -5 -25 -25 0 -20
-5 -25 -25 -25 -23 0 -25 -3 -25 -50 0 -47 2 -50 25 -50 20 0 25 5 25 25 0 20
5 25 25 25 20 0 25 5 25 25 0 20 5 25 25 25 20 0 25 -5 25 -25 0 -20 -5 -25
-25 -25 -20 0 -25 -5 -25 -25 0 -20 -5 -25 -25 -25 -24 0 -25 -2 -25 -75 0
-73 -1 -75 -25 -75 -24 0 -25 -2 -25 -75 l0 -75 -50 0 c-47 0 -50 -2 -50 -25
0 -20 -5 -25 -25 -25 -20 0 -25 -5 -25 -25 0 -20 5 -25 25 -25 20 0 25 -5 25
-25 0 -20 5 -25 25 -25 20 0 25 -5 25 -25 0 -20 5 -25 25 -25 20 0 25 -5 25
-25 0 -20 -5 -25 -25 -25 -20 0 -25 -5 -25 -25 0 -23 3 -25 50 -25 47 0 50 2
50 25 0 24 2 25 75 25 l75 0 0 -50 c0 -47 2 -50 25 -50 23 0 25 3 25 50 0 47
2 50 25 50 23 0 25 3 25 50 0 47 2 50 25 50 23 0 25 -3 25 -50 0 -47 2 -50 25
-50 20 0 25 5 25 25 0 20 5 25 25 25 20 0 25 -5 25 -25 0 -23 3 -25 50 -25 47
0 50 2 50 25 0 20 5 25 25 25 20 0 25 -5 25 -25 0 -20 -5 -25 -25 -25 -24 0
-25 -2 -25 -75 0 -73 -1 -75 -25 -75 -20 0 -25 5 -25 25 0 23 -3 25 -50 25
-47 0 -50 2 -50 25 0 23 -3 25 -50 25 -47 0 -50 -2 -50 -25 0 -20 -5 -25 -25
-25 -20 0 -25 -5 -25 -25 0 -20 -5 -25 -25 -25 -20 0 -25 5 -25 25 0 20 -5 25
-25 25 -24 0 -25 -2 -25 -75 0 -73 -1 -75 -25 -75 -20 0 -25 -5 -25 -25 0 -23
3 -25 50 -25 47 0 50 -2 50 -25 0 -23 3 -25 50 -25 47 0 50 -2 50 -25 0 -20
-5 -25 -25 -25 -20 0 -25 -5 -25 -25 0 -20 -5 -25 -25 -25 -20 0 -25 -5 -25
-25 0 -23 3 -25 50 -25 47 0 50 2 50 25 0 20 5 25 25 25 l25 0 0 -100 0 -100
-25 0 c-23 0 -25 3 -25 50 0 47 -2 50 -25 50 -24 0 -25 -2 -25 -75 l0 -75 -50
0 -50 0 0 -75 c0 -73 -1 -75 -25 -75 -23 0 -25 3 -25 50 0 47 -2 50 -25 50
-24 0 -25 2 -25 75 0 73 -1 75 -25 75 -20 0 -25 5 -25 25 0 20 5 25 25 25 20
0 25 -5 25 -25 0 -20 5 -25 25 -25 20 0 25 5 25 25 0 23 3 25 50 25 47 0 50 2
50 25 0 20 -5 25 -25 25 -20 0 -25 5 -25 25 0 20 -5 25 -25 25 -20 0 -25 -5
-25 -25 0 -20 -5 -25 -25 -25 -20 0 -25 5 -25 25 0 23 -3 25 -50 25 -47 0 -50
2 -50 25 0 20 5 25 25 25 20 0 25 5 25 25 0 20 -5 25 -25 25 -23 0 -25 3 -25
50 0 47 -2 50 -25 50 -23 0 -25 -3 -25 -50 0 -47 -2 -50 -25 -50 -20 0 -25 -5
-25 -25 0 -20 -5 -25 -25 -25 -20 0 -25 -5 -25 -25 0 -23 3 -25 50 -25 47 0
50 -2 50 -25 0 -20 -5 -25 -25 -25 -20 0 -25 -5 -25 -25 l0 -25 -125 0 -125 0
0 25 c0 23 -3 25 -50 25 l-50 0 0 -50 c0 -47 -2 -50 -25 -50 -20 0 -25 5 -25
25 0 20 -5 25 -25 25 -20 0 -25 5 -25 25 0 20 -5 25 -25 25 -20 0 -25 5 -25
25 0 20 -5 25 -25 25 -20 0 -25 5 -25 25 0 20 -5 25 -25 25 -24 0 -25 -2 -25
-75 0 -73 -1 -75 -25 -75 -20 0 -25 -5 -25 -25 0 -20 5 -25 25 -25 20 0 25 -5
25 -25 0 -20 5 -25 25 -25 23 0 25 -3 25 -50 0 -47 2 -50 25 -50 20 0 25 5 25
25 0 20 5 25 25 25 20 0 25 -5 25 -25 0 -20 -5 -25 -25 -25 -20 0 -25 -5 -25
-25 0 -20 5 -25 25 -25 20 0 25 -5 25 -25 0 -20 -5 -25 -25 -25 -20 0 -25 5
-25 25 0 23 -3 25 -50 25 -47 0 -50 2 -50 25 0 23 -3 25 -50 25 -47 0 -50 -2
-50 -25 0 -20 -5 -25 -25 -25 -23 0 -25 -3 -25 -50 l0 -50 50 0 c47 0 50 -2
50 -25 0 -24 -2 -25 -75 -25 l-75 0 0 -50 c0 -47 -2 -50 -25 -50 -23 0 -25 3
-25 50 0 47 -2 50 -25 50 -20 0 -25 -5 -25 -25 0 -23 -3 -25 -50 -25 -47 0
-50 2 -50 25 0 20 -5 25 -25 25 -23 0 -25 -3 -25 -50 l0 -50 -50 0 c-47 0 -50
-2 -50 -25 0 -20 -5 -25 -25 -25 -20 0 -25 -5 -25 -25 0 -23 3 -25 50 -25 47
0 50 -2 50 -25 0 -20 -5 -25 -25 -25 -20 0 -25 -5 -25 -25 0 -23 -3 -25 -50
-25 l-50 0 0 75 c0 73 -1 75 -25 75 -20 0 -25 5 -25 25 0 20 -5 25 -25 25 -20
0 -25 5 -25 25 0 20 5 25 25 25 20 0 25 5 25 25 0 23 -3 25 -50 25 -47 0 -50
2 -50 25 0 23 -3 25 -50 25 -47 0 -50 -2 -50 -25 0 -20 5 -25 25 -25 20 0 25
-5 25 -25 0 -20 -5 -25 -25 -25 -20 0 -25 5 -25 25 0 20 -5 25 -25 25 -20 0
-25 -5 -25 -25 0 -20 -5 -25 -25 -25 -20 0 -25 5 -25 25 0 20 5 25 25 25 20 0
25 5 25 25 0 20 5 25 25 25 20 0 25 5 25 25 0 20 -5 25 -25 25 -20 0 -25 5
-25 25 0 20 -5 25 -25 25 -20 0 -25 5 -25 25 0 20 5 25 25 25 20 0 25 -5 25
-25 0 -20 5 -25 25 -25 20 0 25 5 25 25 0 23 3 25 50 25 47 0 50 2 50 25 0 20
5 25 25 25 20 0 25 -5 25 -25 0 -20 -5 -25 -25 -25 -20 0 -25 -5 -25 -25 0
-20 5 -25 25 -25 20 0 25 -5 25 -25 0 -20 5 -25 25 -25 20 0 25 5 25 25 0 20
5 25 25 25 23 0 25 -3 25 -50 l0 -50 50 0 c47 0 50 2 50 25 0 20 -5 25 -25 25
-23 0 -25 3 -25 50 0 47 2 50 25 50 20 0 25 5 25 25 0 20 -5 25 -25 25 -20 0
-25 5 -25 25 0 20 -5 25 -25 25 -20 0 -25 -5 -25 -25 0 -20 -5 -25 -25 -25
-20 0 -25 5 -25 25 0 20 5 25 25 25 20 0 25 5 25 25 0 24 -2 25 -75 25 -73 0
-75 -1 -75 -25 0 -20 -5 -25 -25 -25 -20 0 -25 -5 -25 -25 0 -20 -5 -25 -25
-25 -20 0 -25 5 -25 25 0 20 5 25 25 25 20 0 25 5 25 25 0 20 -5 25 -25 25
-20 0 -25 5 -25 25 0 20 5 25 25 25 20 0 25 -5 25 -25 0 -20 5 -25 25 -25 20
0 25 5 25 25 0 24 2 25 75 25 73 0 75 1 75 25 0 23 -3 25 -50 25 -47 0 -50 2
-50 25 0 20 5 25 25 25 24 0 25 2 25 75 0 73 -1 75 -25 75 l-25 0 0 125 0 125
-50 0 c-47 0 -50 2 -50 25 0 23 3 25 50 25 47 0 50 -2 50 -25 0 -23 3 -25 50
-25 l50 0 0 -50 0 -50 75 0 c73 0 75 -1 75 -25 0 -24 2 -25 75 -25 73 0 75 1
75 25 0 20 -5 25 -25 25 -20 0 -25 5 -25 25 0 20 -5 25 -25 25 -20 0 -25 5
-25 25 0 20 -5 25 -25 25 l-25 0 0 100 0 100 -25 0 c-23 0 -25 -3 -25 -50 l0
-50 -50 0 -50 0 0 50 c0 47 -2 50 -25 50 -23 0 -25 -3 -25 -50 0 -47 -2 -50
-25 -50 -20 0 -25 5 -25 25 0 20 -5 25 -25 25 -20 0 -25 5 -25 25 0 20 -5 25
-25 25 -20 0 -25 5 -25 25 0 20 -5 25 -25 25 -20 0 -25 5 -25 25 0 20 5 25 25
25 20 0 25 5 25 25 0 20 -5 25 -25 25 -20 0 -25 5 -25 25 0 20 5 25 25 25 20
0 25 -5 25 -25 0 -20 5 -25 25 -25 24 0 25 -2 25 -75 0 -73 1 -75 25 -75 24 0
25 2 25 75 0 73 1 75 25 75 23 0 25 -3 25 -50 0 -47 2 -50 25 -50 23 0 25 3
25 50 l0 50 75 0 75 0 0 50 c0 47 2 50 25 50 20 0 25 5 25 25 0 20 5 25 25 25
23 0 25 3 25 50 0 47 2 50 25 50 23 0 25 -3 25 -50 0 -47 -2 -50 -25 -50 -20
0 -25 -5 -25 -25 0 -20 5 -25 25 -25 23 0 25 -3 25 -50 l0 -50 50 0 c47 0 50
-2 50 -25 0 -23 3 -25 50 -25 47 0 50 -2 50 -25 0 -23 3 -25 50 -25 l50 0 0
-50 c0 -47 -2 -50 -25 -50 -20 0 -25 5 -25 25 0 24 -2 25 -75 25 -73 0 -75 -1
-75 -25 0 -20 5 -25 25 -25 20 0 25 -5 25 -25 0 -23 3 -25 50 -25 47 0 50 -2
50 -25 0 -20 5 -25 25 -25 20 0 25 -5 25 -25 0 -20 5 -25 25 -25 23 0 25 -3
25 -50 0 -47 -2 -50 -25 -50 -20 0 -25 -5 -25 -25 0 -20 5 -25 25 -25 24 0 25
-2 25 -75 l0 -75 75 0 75 0 0 -75 0 -75 50 0 50 0 0 50 c0 47 2 50 25 50 20 0
25 -5 25 -25 0 -20 5 -25 25 -25 20 0 25 5 25 25 l0 25 100 0 100 0 0 50 0 50
-50 0 c-47 0 -50 -2 -50 -25 0 -20 -5 -25 -25 -25 -20 0 -25 5 -25 25 0 20 -5
25 -25 25 -20 0 -25 -5 -25 -25 0 -20 -5 -25 -25 -25 -20 0 -25 5 -25 25 0 20
5 25 25 25 23 0 25 3 25 50 l0 50 -50 0 -50 0 0 50 c0 47 2 50 25 50 20 0 25
5 25 25 0 24 2 25 75 25 73 0 75 -1 75 -25 0 -20 -5 -25 -25 -25 -20 0 -25 -5
-25 -25 0 -23 3 -25 50 -25 l50 0 0 -50 c0 -47 2 -50 25 -50 20 0 25 -5 25
-25 0 -20 5 -25 25 -25 23 0 25 3 25 50 0 47 2 50 25 50 23 0 25 3 25 50 0 47
-2 50 -25 50 -20 0 -25 -5 -25 -25 0 -20 -5 -25 -25 -25 -20 0 -25 5 -25 25 0
20 5 25 25 25 20 0 25 5 25 25 0 20 -5 25 -25 25 -20 0 -25 5 -25 25 0 20 5
25 25 25 23 0 25 3 25 50 0 47 -2 50 -25 50 -20 0 -25 -5 -25 -25 0 -20 -5
-25 -25 -25 -20 0 -25 -5 -25 -25 0 -20 -5 -25 -25 -25 -20 0 -25 5 -25 25 0
20 -5 25 -25 25 -20 0 -25 -5 -25 -25 0 -20 -5 -25 -25 -25 -20 0 -25 5 -25
25 0 20 -5 25 -25 25 -20 0 -25 -5 -25 -25 0 -20 -5 -25 -25 -25 -20 0 -25 -5
-25 -25 0 -20 -5 -25 -25 -25 -20 0 -25 -5 -25 -25 0 -23 -3 -25 -50 -25 -47
0 -50 2 -50 25 0 20 -5 25 -25 25 -20 0 -25 5 -25 25 0 20 5 25 25 25 20 0 25
5 25 25 0 20 -5 25 -25 25 -20 0 -25 5 -25 25 0 20 -5 25 -25 25 -24 0 -25 2
-25 75 l0 75 -50 0 c-47 0 -50 2 -50 25 0 23 -3 25 -50 25 l-50 0 0 50 c0 47
2 50 25 50 20 0 25 -5 25 -25 0 -20 5 -25 25 -25 20 0 25 -5 25 -25 l0 -25
100 0 100 0 0 -25 c0 -20 5 -25 25 -25 20 0 25 -5 25 -25 0 -20 -5 -25 -25
-25 -20 0 -25 5 -25 25 0 20 -5 25 -25 25 -23 0 -25 -3 -25 -50 l0 -50 50 0
c47 0 50 -2 50 -25 0 -20 -5 -25 -25 -25 -20 0 -25 -5 -25 -25 l0 -25 100 0
100 0 0 25 c0 20 -5 25 -25 25 -20 0 -25 5 -25 25 0 20 -5 25 -25 25 l-25 0 0
100 0 100 25 0 c24 0 25 -2 25 -75 l0 -75 50 0 50 0 0 -75 c0 -73 1 -75 25
-75 24 0 25 2 25 75 0 73 1 75 25 75 20 0 25 5 25 25 0 20 5 25 25 25 20 0 25
5 25 25 0 23 -3 25 -50 25 -47 0 -50 -2 -50 -25 0 -20 -5 -25 -25 -25 -20 0
-25 5 -25 25 0 20 5 25 25 25 20 0 25 5 25 25 0 23 -3 25 -50 25 -47 0 -50 2
-50 25 0 24 -2 25 -75 25 l-75 0 0 75 c0 73 -1 75 -25 75 -20 0 -25 5 -25 25
0 20 -5 25 -25 25 -23 0 -25 -3 -25 -50 0 -47 2 -50 25 -50 20 0 25 -5 25 -25
0 -20 -5 -25 -25 -25 -23 0 -25 -3 -25 -50 l0 -50 -50 0 -50 0 0 75 c0 73 -1
75 -25 75 -20 0 -25 5 -25 25 0 20 -5 25 -25 25 -23 0 -25 3 -25 50 0 47 2 50
25 50 20 0 25 -5 25 -25 0 -24 2 -25 75 -25 73 0 75 1 75 25 0 23 3 25 50 25
47 0 50 -2 50 -25 0 -20 5 -25 25 -25 20 0 25 5 25 25 0 20 5 25 25 25 l25 0
0 100 0 100 25 0 c23 0 25 -3 25 -50 0 -47 2 -50 25 -50 24 0 25 2 25 75 l0
75 125 0 125 0 0 -25 c0 -20 5 -25 25 -25 20 0 25 -5 25 -25 0 -20 5 -25 25
-25 20 0 25 5 25 25 0 20 5 25 25 25 20 0 25 5 25 25 0 20 5 25 25 25 20 0 25
5 25 25 0 20 5 25 25 25 20 0 25 -5 25 -25z m-650 -150 l0 -75 -75 0 -75 0 0
75 0 75 75 0 75 0 0 -75z m-300 -25 c0 -47 -2 -50 -25 -50 -23 0 -25 3 -25 50
0 47 2 50 25 50 23 0 25 -3 25 -50z m100 -75 c0 -20 -5 -25 -25 -25 -20 0 -25
5 -25 25 0 20 5 25 25 25 20 0 25 -5 25 -25z m-1100 -175 c0 -47 -2 -50 -25
-50 -23 0 -25 3 -25 50 0 47 2 50 25 50 23 0 25 -3 25 -50z m450 -25 c0 -20
-5 -25 -25 -25 -20 0 -25 5 -25 25 0 20 5 25 25 25 20 0 25 -5 25 -25z m1850
0 c0 -23 -3 -25 -50 -25 -47 0 -50 2 -50 25 0 23 3 25 50 25 47 0 50 -2 50
-25z m-1450 -75 c0 -47 -2 -50 -25 -50 -23 0 -25 3 -25 50 0 47 2 50 25 50 23
0 25 -3 25 -50z m1600 -25 c0 -20 -5 -25 -25 -25 -20 0 -25 5 -25 25 0 20 5
25 25 25 20 0 25 -5 25 -25z m-400 -100 c0 -20 -5 -25 -25 -25 -20 0 -25 5
-25 25 0 20 5 25 25 25 20 0 25 -5 25 -25z m400 -50 c0 -20 -5 -25 -25 -25
-20 0 -25 5 -25 25 0 20 5 25 25 25 20 0 25 -5 25 -25z m-1900 -275 c0 -47 -2
-50 -25 -50 -23 0 -25 3 -25 50 0 47 2 50 25 50 23 0 25 -3 25 -50z m-450
-100 c0 -47 -2 -50 -25 -50 -20 0 -25 -5 -25 -25 0 -20 5 -25 25 -25 23 0 25
-3 25 -50 0 -47 -2 -50 -25 -50 -20 0 -25 -5 -25 -25 0 -20 -5 -25 -25 -25
-20 0 -25 5 -25 25 0 20 5 25 25 25 23 0 25 3 25 50 0 47 -2 50 -25 50 -20 0
-25 5 -25 25 0 20 5 25 25 25 20 0 25 5 25 25 0 20 -5 25 -25 25 -20 0 -25 5
-25 25 0 23 3 25 50 25 l50 0 0 -50z m200 -75 l0 -75 -75 0 -75 0 0 75 0 75
75 0 75 0 0 -75z m1000 0 l0 -75 -75 0 -75 0 0 75 0 75 75 0 75 0 0 -75z
m1000 0 l0 -75 -75 0 -75 0 0 75 0 75 75 0 75 0 0 -75z m-2050 -150 c0 -20 -5
-25 -25 -25 -20 0 -25 5 -25 25 0 20 5 25 25 25 20 0 25 -5 25 -25z m2100 0
c0 -20 -5 -25 -25 -25 -20 0 -25 5 -25 25 0 20 5 25 25 25 20 0 25 -5 25 -25z
m-2250 -275 c0 -47 -2 -50 -25 -50 -20 0 -25 -5 -25 -25 0 -20 -5 -25 -25 -25
-20 0 -25 -5 -25 -25 0 -20 -5 -25 -25 -25 -20 0 -25 5 -25 25 0 20 5 25 25
25 20 0 25 5 25 25 0 20 5 25 25 25 20 0 25 5 25 25 0 23 -3 25 -50 25 -47 0
-50 2 -50 25 0 24 2 25 75 25 l75 0 0 -50z m1500 -75 c0 -20 5 -25 25 -25 20
0 25 -5 25 -25 0 -20 -5 -25 -25 -25 -20 0 -25 5 -25 25 0 20 -5 25 -25 25
-20 0 -25 5 -25 25 0 20 5 25 25 25 20 0 25 -5 25 -25z m-450 -150 c0 -20 -5
-25 -25 -25 -20 0 -25 5 -25 25 0 20 5 25 25 25 20 0 25 -5 25 -25z m1100 -50
c0 -20 5 -25 25 -25 23 0 25 -3 25 -50 l0 -50 -75 0 c-73 0 -75 -1 -75 -25 0
-20 -5 -25 -25 -25 -20 0 -25 5 -25 25 0 20 5 25 25 25 20 0 25 5 25 25 0 23
3 25 50 25 47 0 50 2 50 25 0 20 -5 25 -25 25 -20 0 -25 5 -25 25 0 20 5 25
25 25 20 0 25 -5 25 -25z m-700 -125 c0 -47 -2 -50 -25 -50 -23 0 -25 -3 -25
-50 0 -47 -2 -50 -25 -50 -23 0 -25 3 -25 50 0 47 2 50 25 50 23 0 25 3 25 50
0 47 2 50 25 50 23 0 25 -3 25 -50z m-1200 -75 c0 -20 -5 -25 -25 -25 -20 0
-25 5 -25 25 0 20 5 25 25 25 20 0 25 -5 25 -25z m950 -100 l0 -75 -75 0 -75
0 0 75 0 75 75 0 75 0 0 -75z m1000 0 l0 -75 -75 0 -75 0 0 75 0 75 75 0 75 0
0 -75z m-900 0 c0 -20 5 -25 25 -25 23 0 25 -3 25 -50 0 -47 2 -50 25 -50 23
0 25 3 25 50 0 47 2 50 25 50 23 0 25 -3 25 -50 l0 -50 50 0 c47 0 50 -2 50
-25 0 -23 -3 -25 -50 -25 -47 0 -50 -2 -50 -25 l0 -25 -100 0 -100 0 0 50 c0
47 2 50 25 50 23 0 25 3 25 50 0 47 -2 50 -25 50 -20 0 -25 5 -25 25 0 20 5
25 25 25 20 0 25 -5 25 -25z m1000 0 c0 -20 5 -25 25 -25 20 0 25 -5 25 -25 0
-20 -5 -25 -25 -25 -20 0 -25 5 -25 25 0 20 -5 25 -25 25 -20 0 -25 5 -25 25
0 20 5 25 25 25 20 0 25 -5 25 -25z m-1650 -125 c0 -47 -2 -50 -25 -50 -20 0
-25 -5 -25 -25 0 -23 -3 -25 -50 -25 l-50 0 0 50 0 50 50 0 c47 0 50 2 50 25
0 20 5 25 25 25 23 0 25 -3 25 -50z m350 0 c0 -47 -2 -50 -25 -50 -23 0 -25 3
-25 50 0 47 2 50 25 50 23 0 25 -3 25 -50z m-200 -25 c0 -20 -5 -25 -25 -25
-20 0 -25 -5 -25 -25 0 -20 -5 -25 -25 -25 -23 0 -25 3 -25 50 l0 50 50 0 c47
0 50 -2 50 -25z m1250 0 c0 -20 5 -25 25 -25 20 0 25 -5 25 -25 0 -20 -5 -25
-25 -25 -20 0 -25 5 -25 25 0 20 -5 25 -25 25 -20 0 -25 5 -25 25 0 20 5 25
25 25 20 0 25 -5 25 -25z m350 -75 c0 -47 -2 -50 -25 -50 -23 0 -25 3 -25 50
0 47 2 50 25 50 23 0 25 -3 25 -50z"/>
<path d="M2170 2605 c0 -20 -5 -25 -25 -25 -20 0 -25 -5 -25 -25 0 -20 -5 -25
-25 -25 -20 0 -25 -5 -25 -25 0 -20 -5 -25 -25 -25 -20 0 -25 5 -25 25 0 20
-5 25 -25 25 -20 0 -25 5 -25 25 0 24 -2 25 -75 25 -73 0 -75 -1 -75 -25 0
-20 -5 -25 -25 -25 -23 0 -25 -3 -25 -50 l0 -50 -50 0 c-47 0 -50 -2 -50 -25
0 -20 -5 -25 -25 -25 -20 0 -25 -5 -25 -25 0 -20 -5 -25 -25 -25 -20 0 -25 -5
-25 -25 0 -20 5 -25 25 -25 23 0 25 -3 25 -50 l0 -50 125 0 125 0 0 25 c0 20
5 25 25 25 24 0 25 2 25 75 0 73 1 75 25 75 20 0 25 -5 25 -25 0 -20 5 -25 25
-25 20 0 25 -5 25 -25 0 -20 5 -25 25 -25 20 0 25 5 25 25 0 20 -5 25 -25 25
-20 0 -25 5 -25 25 0 20 -5 25 -25 25 -20 0 -25 5 -25 25 l0 25 100 0 100 0 0
25 c0 20 5 25 25 25 24 0 25 2 25 75 0 73 -1 75 -25 75 -20 0 -25 -5 -25 -25z
m-300 -100 c0 -20 5 -25 25 -25 20 0 25 5 25 25 0 20 5 25 25 25 20 0 25 -5
25 -25 0 -20 -5 -25 -25 -25 -23 0 -25 -3 -25 -50 0 -47 -2 -50 -25 -50 -20 0
-25 5 -25 25 0 20 -5 25 -25 25 -20 0 -25 -5 -25 -25 0 -20 -5 -25 -25 -25
-24 0 -25 -2 -25 -75 l0 -75 -50 0 c-47 0 -50 2 -50 25 0 20 -5 25 -25 25 -20
0 -25 5 -25 25 0 23 3 25 50 25 47 0 50 2 50 25 0 20 5 25 25 25 20 0 25 5 25
25 0 20 5 25 25 25 23 0 25 3 25 50 0 47 2 50 25 50 20 0 25 -5 25 -25z m300
0 c0 -20 -5 -25 -25 -25 -20 0 -25 5 -25 25 0 20 5 25 25 25 20 0 25 -5 25
-25z m-300 -200 c0 -20 -5 -25 -25 -25 -20 0 -25 5 -25 25 0 20 5 25 25 25 20
0 25 -5 25 -25z"/>
<path d="M1320 2255 c0 -20 5 -25 25 -25 20 0 25 5 25 25 0 20 -5 25 -25 25
-20 0 -25 -5 -25 -25z"/>
<path d="M1970 2180 l0 -50 -50 0 c-47 0 -50 -2 -50 -25 0 -23 3 -25 50 -25
47 0 50 2 50 25 0 20 5 25 25 25 23 0 25 3 25 50 0 47 -2 50 -25 50 -23 0 -25
-3 -25 -50z"/>
<path d="M2070 2205 c0 -20 5 -25 25 -25 20 0 25 5 25 25 0 20 -5 25 -25 25
-20 0 -25 -5 -25 -25z"/>
<path d="M920 2080 c0 -47 -2 -50 -25 -50 -20 0 -25 -5 -25 -25 0 -23 3 -25
50 -25 47 0 50 -2 50 -25 0 -20 5 -25 25 -25 23 0 25 -3 25 -50 l0 -50 -50 0
-50 0 0 -75 c0 -73 1 -75 25 -75 20 0 25 -5 25 -25 0 -20 5 -25 25 -25 23 0
25 3 25 50 l0 50 50 0 c47 0 50 2 50 25 0 20 -5 25 -25 25 -23 0 -25 3 -25 50
0 47 2 50 25 50 23 0 25 3 25 50 0 47 -2 50 -25 50 -20 0 -25 -5 -25 -25 0
-20 -5 -25 -25 -25 -20 0 -25 5 -25 25 0 20 -5 25 -25 25 -24 0 -25 2 -25 75
0 73 -1 75 -25 75 -23 0 -25 -3 -25 -50z"/>
<path d="M2020 2055 c0 -23 -3 -25 -50 -25 -47 0 -50 -2 -50 -25 0 -20 -5 -25
-25 -25 -23 0 -25 -3 -25 -50 0 -47 -2 -50 -25 -50 -20 0 -25 -5 -25 -25 0
-20 5 -25 25 -25 20 0 25 5 25 25 0 20 5 25 25 25 23 0 25 3 25 50 l0 50 50 0
c47 0 50 2 50 25 0 20 5 25 25 25 20 0 25 5 25 25 0 20 -5 25 -25 25 -20 0
-25 -5 -25 -25z"/>
<path d="M720 1905 c0 -23 3 -25 50 -25 47 0 50 2 50 25 0 23 -3 25 -50 25
-47 0 -50 -2 -50 -25z"/>
<path d="M2020 1755 c0 -20 5 -25 25 -25 20 0 25 5 25 25 0 20 -5 25 -25 25
-20 0 -25 -5 -25 -25z"/>
<path d="M1170 1705 c0 -20 5 -25 25 -25 20 0 25 -5 25 -25 0 -20 -5 -25 -25
-25 -20 0 -25 -5 -25 -25 0 -23 3 -25 50 -25 l50 0 0 75 0 75 -50 0 c-47 0
-50 -2 -50 -25z"/>
<path d="M2170 1655 c0 -23 -3 -25 -50 -25 -47 0 -50 -2 -50 -25 0 -20 5 -25
25 -25 24 0 25 -2 25 -75 0 -73 1 -75 25 -75 20 0 25 -5 25 -25 0 -20 5 -25
25 -25 20 0 25 5 25 25 0 20 -5 25 -25 25 -20 0 -25 5 -25 25 0 20 5 25 25 25
23 0 25 3 25 50 0 47 -2 50 -25 50 -20 0 -25 5 -25 25 0 23 3 25 50 25 47 0
50 2 50 25 0 23 -3 25 -50 25 -47 0 -50 -2 -50 -25z"/>
<path d="M1070 1580 c0 -47 -2 -50 -25 -50 -20 0 -25 -5 -25 -25 0 -20 -5 -25
-25 -25 -23 0 -25 -3 -25 -50 0 -47 2 -50 25 -50 23 0 25 3 25 50 0 47 2 50
25 50 23 0 25 -3 25 -50 0 -47 2 -50 25 -50 20 0 25 -5 25 -25 0 -24 -2 -25
-75 -25 -73 0 -75 -1 -75 -25 0 -20 5 -25 25 -25 20 0 25 -5 25 -25 0 -23 -3
-25 -50 -25 -47 0 -50 2 -50 25 0 23 -3 25 -50 25 l-50 0 0 -50 c0 -47 -2 -50
-25 -50 -20 0 -25 -5 -25 -25 0 -23 3 -25 50 -25 l50 0 0 -75 c0 -73 -1 -75
-25 -75 -20 0 -25 -5 -25 -25 0 -20 5 -25 25 -25 23 0 25 -3 25 -50 0 -47 -2
-50 -25 -50 -20 0 -25 -5 -25 -25 0 -20 -5 -25 -25 -25 -20 0 -25 -5 -25 -25
0 -23 -3 -25 -50 -25 -47 0 -50 -2 -50 -25 0 -23 3 -25 50 -25 47 0 50 2 50
25 0 23 3 25 50 25 l50 0 0 50 c0 47 2 50 25 50 23 0 25 3 25 50 0 47 2 50 25
50 20 0 25 -5 25 -25 0 -20 5 -25 25 -25 23 0 25 -3 25 -50 0 -47 2 -50 25
-50 20 0 25 5 25 25 0 20 5 25 25 25 20 0 25 -5 25 -25 0 -20 5 -25 25 -25
l25 0 0 100 0 100 50 0 c47 0 50 2 50 25 0 23 3 25 50 25 47 0 50 2 50 25 0
23 -3 25 -50 25 l-50 0 0 50 c0 47 2 50 25 50 23 0 25 3 25 50 l0 50 -100 0
-100 0 0 25 c0 24 2 25 75 25 73 0 75 1 75 25 0 20 5 25 25 25 20 0 25 5 25
25 0 20 -5 25 -25 25 -20 0 -25 5 -25 25 0 20 5 25 25 25 20 0 25 5 25 25 0
23 -3 25 -50 25 l-50 0 0 -50 0 -50 -50 0 c-47 0 -50 2 -50 25 0 20 5 25 25
25 20 0 25 5 25 25 0 20 -5 25 -25 25 -23 0 -25 3 -25 50 0 47 -2 50 -25 50
-23 0 -25 -3 -25 -50z m50 -75 c0 -20 -5 -25 -25 -25 -20 0 -25 5 -25 25 0 20
5 25 25 25 20 0 25 -5 25 -25z m0 -250 c0 -23 3 -25 50 -25 47 0 50 -2 50 -25
l0 -25 -100 0 -100 0 0 -50 c0 -47 -2 -50 -25 -50 -20 0 -25 -5 -25 -25 0 -24
2 -25 75 -25 73 0 75 1 75 25 0 20 -5 25 -25 25 -20 0 -25 5 -25 25 0 24 2 25
75 25 l75 0 0 -50 0 -50 -50 0 c-47 0 -50 -2 -50 -25 0 -20 -5 -25 -25 -25
-20 0 -25 -5 -25 -25 0 -20 5 -25 25 -25 20 0 25 -5 25 -25 0 -20 -5 -25 -25
-25 -20 0 -25 5 -25 25 0 20 -5 25 -25 25 -20 0 -25 5 -25 25 0 20 -5 25 -25
25 -20 0 -25 5 -25 25 0 20 -5 25 -25 25 -20 0 -25 5 -25 25 0 20 5 25 25 25
23 0 25 3 25 50 0 47 2 50 25 50 20 0 25 5 25 25 0 20 5 25 25 25 20 0 25 5
25 25 0 20 5 25 25 25 20 0 25 -5 25 -25z m-200 -75 c0 -47 -2 -50 -25 -50
-23 0 -25 3 -25 50 0 47 2 50 25 50 23 0 25 -3 25 -50z"/>
<path d="M670 1505 c0 -73 1 -75 25 -75 24 0 25 2 25 75 0 73 -1 75 -25 75
-24 0 -25 -2 -25 -75z"/>
<path d="M1720 1555 c0 -20 5 -25 25 -25 20 0 25 5 25 25 0 20 -5 25 -25 25
-20 0 -25 -5 -25 -25z"/>
<path d="M820 1505 c0 -20 -5 -25 -25 -25 -20 0 -25 -5 -25 -25 0 -24 2 -25
75 -25 73 0 75 1 75 25 0 20 -5 25 -25 25 -20 0 -25 5 -25 25 0 20 -5 25 -25
25 -20 0 -25 -5 -25 -25z"/>
<path d="M1770 1455 c0 -20 5 -25 25 -25 20 0 25 5 25 25 0 20 -5 25 -25 25
-20 0 -25 -5 -25 -25z"/>
<path d="M720 1305 c0 -73 1 -75 25 -75 24 0 25 2 25 75 0 73 -1 75 -25 75
-24 0 -25 -2 -25 -75z"/>
<path d="M1770 1255 c0 -23 3 -25 50 -25 47 0 50 2 50 25 0 23 -3 25 -50 25
-47 0 -50 -2 -50 -25z"/>
<path d="M2220 1080 c0 -47 2 -50 25 -50 20 0 25 5 25 25 0 20 5 25 25 25 20
0 25 5 25 25 0 23 -3 25 -50 25 l-50 0 0 -50z"/>
<path d="M470 905 c0 -20 5 -25 25 -25 20 0 25 5 25 25 0 20 -5 25 -25 25 -20
0 -25 -5 -25 -25z"/>
<path d="M570 855 c0 -20 5 -25 25 -25 20 0 25 5 25 25 0 20 -5 25 -25 25 -20
0 -25 -5 -25 -25z"/>
<path d="M1470 2505 c0 -20 5 -25 25 -25 20 0 25 5 25 25 0 20 -5 25 -25 25
-20 0 -25 -5 -25 -25z"/>
<path d="M470 1505 c0 -20 5 -25 25 -25 20 0 25 5 25 25 0 20 -5 25 -25 25
-20 0 -25 -5 -25 -25z"/>
<path d="M1470 1505 c0 -20 5 -25 25 -25 20 0 25 5 25 25 0 20 -5 25 -25 25
-20 0 -25 -5 -25 -25z"/>
<path d="M2470 1505 c0 -20 5 -25 25 -25 20 0 25 5 25 25 0 20 -5 25 -25 25
-20 0 -25 -5 -25 -25z"/>
<path d="M1470 505 c0 -20 5 -25 25 -25 20 0 25 5 25 25 0 20 -5 25 -25 25
-20 0 -25 -5 -25 -25z"/>
<path d="M2470 505 c0 -20 5 -25 25 -25 20 0 25 5 25 25 0 20 -5 25 -25 25
-20 0 -25 -5 -25 -25z"/>
<path d="M1520 2805 c0 -23 3 -25 50 -25 47 0 50 2 50 25 0 23 -3 25 -50 25
-47 0 -50 -2 -50 -25z"/>
<path d="M1970 2805 c0 -20 5 -25 25 -25 20 0 25 -5 25 -25 0 -20 5 -25 25
-25 20 0 25 5 25 25 0 20 5 25 25 25 20 0 25 5 25 25 0 20 -5 25 -25 25 -20 0
-25 -5 -25 -25 0 -20 -5 -25 -25 -25 -20 0 -25 5 -25 25 0 20 -5 25 -25 25
-20 0 -25 -5 -25 -25z"/>
<path d="M2470 2655 l0 -175 175 0 175 0 0 175 0 175 -175 0 -175 0 0 -175z
m300 0 l0 -125 -125 0 -125 0 0 125 0 125 125 0 125 0 0 -125z"/>
<path d="M2570 2655 l0 -75 75 0 75 0 0 75 0 75 -75 0 -75 0 0 -75z"/>
<path d="M570 2655 c0 -73 1 -75 25 -75 24 0 25 2 25 75 0 73 -1 75 -25 75
-24 0 -25 -2 -25 -75z"/>
<path d="M1170 2655 c0 -20 5 -25 25 -25 20 0 25 5 25 25 0 20 -5 25 -25 25
-20 0 -25 -5 -25 -25z"/>
<path d="M870 2530 c0 -47 2 -50 25 -50 20 0 25 5 25 25 0 20 5 25 25 25 20 0
25 -5 25 -25 0 -20 5 -25 25 -25 20 0 25 5 25 25 0 20 -5 25 -25 25 -20 0 -25
5 -25 25 0 23 -3 25 -50 25 l-50 0 0 -50z"/>
<path d="M870 2405 c0 -20 5 -25 25 -25 20 0 25 5 25 25 0 20 -5 25 -25 25
-20 0 -25 -5 -25 -25z"/>
<path d="M470 2205 c0 -20 5 -25 25 -25 20 0 25 5 25 25 0 20 -5 25 -25 25
-20 0 -25 -5 -25 -25z"/>
<path d="M170 2030 c0 -47 2 -50 25 -50 20 0 25 5 25 25 0 20 5 25 25 25 20 0
25 5 25 25 0 23 -3 25 -50 25 l-50 0 0 -50z"/>
<path d="M2770 1530 c0 -47 -2 -50 -25 -50 -23 0 -25 -3 -25 -50 0 -47 2 -50
25 -50 23 0 25 3 25 50 0 47 2 50 25 50 23 0 25 3 25 50 0 47 -2 50 -25 50
-23 0 -25 -3 -25 -50z"/>
<path d="M2770 1205 c0 -20 5 -25 25 -25 20 0 25 5 25 25 0 20 -5 25 -25 25
-20 0 -25 -5 -25 -25z"/>
<path d="M2770 755 c0 -20 5 -25 25 -25 20 0 25 5 25 25 0 20 -5 25 -25 25
-20 0 -25 -5 -25 -25z"/>
<path d="M2220 705 c0 -20 -5 -25 -25 -25 -20 0 -25 -5 -25 -25 0 -20 5 -25
25 -25 20 0 25 5 25 25 0 20 5 25 25 25 20 0 25 5 25 25 0 20 -5 25 -25 25
-20 0 -25 -5 -25 -25z"/>
<path d="M2770 655 c0 -20 5 -25 25 -25 20 0 25 5 25 25 0 20 -5 25 -25 25
-20 0 -25 -5 -25 -25z"/>
<path d="M1920 605 c0 -20 -5 -25 -25 -25 -20 0 -25 -5 -25 -25 0 -20 5 -25
25 -25 20 0 25 5 25 25 0 20 5 25 25 25 20 0 25 5 25 25 0 20 -5 25 -25 25
-20 0 -25 -5 -25 -25z"/>
<path d="M2020 530 c0 -47 2 -50 25 -50 20 0 25 5 25 25 0 20 5 25 25 25 20 0
25 5 25 25 0 23 -3 25 -50 25 l-50 0 0 -50z"/>
<path d="M2170 555 c0 -24 2 -25 75 -25 73 0 75 1 75 25 0 24 -2 25 -75 25
-73 0 -75 -1 -75 -25z"/>
<path d="M170 355 l0 -175 175 0 175 0 0 175 0 175 -175 0 -175 0 0 -175z
m300 0 l0 -125 -125 0 -125 0 0 125 0 125 125 0 125 0 0 -125z"/>
<path d="M270 355 l0 -75 75 0 75 0 0 75 0 75 -75 0 -75 0 0 -75z"/>
<path d="M2570 255 c0 -20 5 -25 25 -25 20 0 25 5 25 25 0 20 -5 25 -25 25
-20 0 -25 -5 -25 -25z"/>
</g>
</svg>
